<mxfile host="app.diagrams.net" modified="2023-07-20T17:00:25.446Z" agent="Mozilla/5.0 (X11; Linux aarch64; rv:109.0) Gecko/20100101 Firefox/114.0" version="21.6.3" etag="u-JPoNt9qUAisJTL2ynI" type="github">
  <diagram name="Page-1" id="nwxdm17ZlH0MZr_wtRoj">
    <mxGraphModel>
      <root>
        <mxCell id="0" />
        <mxCell id="1" parent="0" />
      </root>
    </mxGraphModel>
  </diagram>
</mxfile>
